# xmcd
#
# Track frame offsets:
#	150
#	21667
#	35517
#	52374
#	66317
#	91286
#	103364
#	118158
#	142857
#	164128
#
# Disc length: 2549 seconds
#
# Revision: 1
# Processed by: cddbd v1.5.2PL0 Copyright (c) Steve Scherf et al.
# Submitted via: EasyCDDAExtractor 10.0.2.1
#
DISCID=9e09f30a
DTITLE=Various Artist - Kylm‰‰ ja Yksin‰ist‰
DYEAR=2007
DGENRE=Pop
TTITLE0=K-32 - Sateenkaaren p‰‰ss‰
TTITLE1=King Star - No more
TTITLE2=Tuvalu - Varjoel‰imet
TTITLE3=Monotonix - Kylm‰‰ ja yksin‰ist‰
TTITLE4=Visto - Sanahelin‰‰
TTITLE5=La Sega Del Canto - N‰pit irti!
TTITLE6=Justin Case - Mama
TTITLE7=K-32 - Taivas on lasia
TTITLE8=Midday Moon - One hearth one soul
TTITLE9=Midday Moon - Peace and love
EXTD=
EXTT0=
EXTT1=
EXTT2=
EXTT3=
EXTT4=
EXTT5=
EXTT6=
EXTT7=
EXTT8=
EXTT9=
PLAYORDER=
